<svg width="12" height="16" viewBox="0 0 12 16" xmlns="http://www.w3.org/2000/svg" xmlns:xlink="http://www.w3.org/1999/xlink"><title>bell</title><desc>Created using Figma</desc><use xlink:href="#a" transform="translate(4.18 14.07)" fill="#4D546C"/><use xlink:href="#b" transform="translate(.02)" fill="#4D546C"/><defs><path id="a" d="M0 0v.012C0 1.06.82 1.907 1.83 1.907c1.012 0 1.831-.848 1.831-1.895V0H0z"/><path id="b" d="M11.834 11.702l-1.648-2.504V6.073c0-2.107-1.45-3.863-3.374-4.26v-.96C6.812.382 6.444 0 5.99 0c-.455 0-.823.381-.823.852v.962c-1.924.396-3.374 2.152-3.374 4.26v3.124L.144 11.702a.887.887 0 0 0-.047.888.829.829 0 0 0 .735.458h10.314a.83.83 0 0 0 .736-.458.887.887 0 0 0-.048-.888z"/></defs></svg>