<svg width="18" height="17" viewBox="0 0 18 17" xmlns="http://www.w3.org/2000/svg" xmlns:xlink="http://www.w3.org/1999/xlink"><title>Shape Copy 5</title><desc>Created using Figma</desc><use xlink:href="#a" fill="#4D546C" opacity=".5"/><defs><path id="a" d="M16.57 12.408c.936-1.3 1.43-2.803 1.43-4.355C18 3.613 13.962 0 9 0 4.037 0 0 3.612 0 8.053c0 4.44 4.037 8.052 9 8.052a9.827 9.827 0 0 0 3.673-.7c2.041 1.171 4.864 1.575 4.985 1.592a.3.3 0 0 0 .31-.162.297.297 0 0 0-.056-.344c-.69-.686-1.165-2.133-1.343-4.083z"/></defs></svg>