<svg width="20" height="5" viewBox="0 0 20 5" xmlns="http://www.w3.org/2000/svg" xmlns:xlink="http://www.w3.org/1999/xlink"><title>Shape Copy 4</title><desc>Created using Figma</desc><use xlink:href="#a" fill="#4D546C" opacity=".5"/><defs><path id="a" fill-rule="evenodd" d="M2.5 0A2.507 2.507 0 0 0 0 2.5C0 3.875 1.125 5 2.5 5S5 3.875 5 2.5 3.875 0 2.5 0zm15 0A2.507 2.507 0 0 0 15 2.5C15 3.875 16.125 5 17.5 5S20 3.875 20 2.5 18.875 0 17.5 0zm-10 2.5C7.5 1.125 8.625 0 10 0s2.5 1.125 2.5 2.5S11.375 5 10 5a2.507 2.507 0 0 1-2.5-2.5z"/></defs></svg>