<svg width="9" height="18" viewBox="0 0 9 18" version="1.1" xmlns="http://www.w3.org/2000/svg" xmlns:xlink="http://www.w3.org/1999/xlink">
<title>Shape</title>
<desc>Created using Figma</desc>
<g id="Canvas" transform="translate(-1175 -3344)">
<g id="Shape">
<use xlink:href="#path0_fill" transform="translate(1175 3344)" fill="#4D546C"/>
</g>
</g>
<defs>
<path id="path0_fill" d="M 0.287397 9.58679L 2.24037 9.58679L 2.24037 17.7097C 2.24037 17.8701 2.36898 18 2.52773 18L 5.83908 18C 5.99783 18 6.12644 17.8701 6.12644 17.7097L 6.12644 9.62508L 8.37158 9.62508C 8.51756 9.62508 8.6404 9.51441 8.65707 9.36791L 8.99805 6.37748C 9.00741 6.29522 8.98163 6.21281 8.92713 6.15108C 8.8726 6.08931 8.79455 6.05394 8.71264 6.05394L 6.12658 6.05394L 6.12658 4.17938C 6.12658 3.61431 6.42773 3.32775 7.0218 3.32775C 7.10646 3.32775 8.71264 3.32775 8.71264 3.32775C 8.87139 3.32775 9 3.19774 9 3.03743L 9 0.292465C 9 0.132082 8.87139 0.00214453 8.71264 0.00214453L 6.38238 0.00214453C 6.36596 0.00133594 6.32946 0 6.27566 0C 5.87134 0 4.46595 0.0801915 3.35579 1.11199C 2.12574 2.25541 2.29674 3.62443 2.3376 3.86181L 2.3376 6.05387L 0.287362 6.05387C 0.128614 6.05387 0 6.18381 0 6.34419L 0 9.29644C 3.47981e-05 9.45679 0.128648 9.58679 0.287397 9.58679Z"/>
</defs>
</svg>
