<svg width="8" height="16" viewBox="0 0 8 16" xmlns="http://www.w3.org/2000/svg" xmlns:xlink="http://www.w3.org/1999/xlink"><title>Shape Copy 2</title><desc>Created using Figma</desc><use xlink:href="#a" fill="#7B8DA0"/><defs><path id="a" d="M.255 8.522h1.736v7.22c0 .142.115.258.256.258H5.19a.257.257 0 0 0 .256-.258V8.556H7.44c.13 0 .24-.099.254-.229l.303-2.658a.26.26 0 0 0-.063-.201.254.254 0 0 0-.19-.087h-2.3V3.715c0-.502.269-.757.797-.757h1.503A.257.257 0 0 0 8 2.7V.26a.257.257 0 0 0-.255-.258H5.673C5.66.002 5.626 0 5.578 0 5.22 0 3.97.071 2.983.988c-1.093 1.017-.941 2.234-.905 2.445V5.38H.255A.257.257 0 0 0 0 5.64v2.625c0 .142.114.258.255.258z"/></defs></svg>