<svg width="17" height="13" viewBox="0 0 17 13" xmlns="http://www.w3.org/2000/svg" xmlns:xlink="http://www.w3.org/1999/xlink"><title>gmail</title><desc>Created using Figma</desc><use xlink:href="#a" transform="translate(1.1 2.083)" fill="#F2F2F2"/><use xlink:href="#b" transform="translate(1.26 .033)" fill="#F2F2F2"/><use xlink:href="#c" transform="translate(0 1.723)" fill="#F14336"/><use xlink:href="#d" transform="translate(14.97 1.624)" fill="#D32E2A"/><use xlink:href="#e" transform="translate(0 .033)" fill="#F14336"/><use xlink:href="#f" transform="translate(0 1.723)" fill="#D32E2A"/><defs><path id="a" d="M14.942 0l-1.081 10.884H.871L0 .211l7.366 4.133L14.942 0z"/><path id="b" d="M14.419 0l-7.21 6.788L0 0h14.419z"/><path id="c" d="M1.976 1.443v9.801H.799a.8.8 0 0 1-.799-.8V0l1.29.035.686 1.408z"/><path id="d" d="M1.976.1v10.443a.8.8 0 0 1-.8.8H0v-9.8L.652 0l1.324.1z"/><path id="e" d="M16.941.8v.89l-1.976 1.444L8.471 7.88 1.976 3.134 0 1.691V.8A.8.8 0 0 1 .799 0h.462l7.21 5.267L15.68 0h.461a.8.8 0 0 1 .8.8z"/><path id="f" d="M1.976 1.443L0 1.136V0l1.976 1.443z"/></defs></svg>