<svg width="24" height="24" viewBox="0 0 24 24" xmlns="http://www.w3.org/2000/svg" xmlns:xlink="http://www.w3.org/1999/xlink"><title>search (5)</title><desc>Created using Figma</desc><use xlink:href="#a" transform="translate(0 6.48)" fill="#FBBB00"/><use xlink:href="#b" transform="translate(12.264 9.76)" fill="#518EF8"/><use xlink:href="#c" transform="translate(1.43 14.5)" fill="#28B446"/><use xlink:href="#d" transform="translate(1.342)" fill="#F14336"/><defs><path id="a" d="M5.319 8.022l-.835 3.119-3.054.065A11.947 11.947 0 0 1 0 5.519C0 3.529.484 1.652 1.342 0l2.719.498L5.25 3.2a7.133 7.133 0 0 0-.384 2.319c0 .88.16 1.725.452 2.503z"/><path id="b" d="M11.527 0a12.021 12.021 0 0 1-.053 4.747A11.998 11.998 0 0 1 7.249 11.6l-3.425-.176L3.34 8.4a7.152 7.152 0 0 0 3.077-3.652H0V0h11.527z"/><path id="c" d="M18.082 6.854a11.95 11.95 0 0 1-7.512 2.642C6 9.496 2.027 6.942 0 3.183L3.889 0a7.135 7.135 0 0 0 10.284 3.654l3.909 3.2z"/><path id="d" d="M18.318 2.763L14.43 5.945A7.137 7.137 0 0 0 3.91 9.681L0 6.482A11.998 11.998 0 0 1 10.658 0a11.95 11.95 0 0 1 7.66 2.763z"/></defs></svg>