<svg width="16" height="16" viewBox="0 0 16 16" xmlns="http://www.w3.org/2000/svg" xmlns:xlink="http://www.w3.org/1999/xlink"><title>link</title><desc>Created using Figma</desc><use xlink:href="#a" transform="translate(.01 1.76)" fill="#4D546C"/><use xlink:href="#b" transform="translate(1.77)" fill="#4D546C"/><defs><path id="a" d="M8.254 10.515L5.98 12.789a3.184 3.184 0 0 1-2.266.94 3.208 3.208 0 0 1-2.266-5.471l4.281-4.283a3.184 3.184 0 0 1 2.266-.938 3.207 3.207 0 0 1 3.041 2.193L9.01 7.257a1.434 1.434 0 0 1-1.02.422 1.434 1.434 0 0 1-1.338-.9.255.255 0 1 0-.473.192c.098.243.243.46.429.647.369.369.86.572 1.382.572.522 0 1.012-.203 1.382-.572l4.281-4.282c.37-.37.572-.86.572-1.382 0-.522-.203-1.013-.572-1.382A1.942 1.942 0 0 0 12.271 0c-.522 0-1.012.203-1.382.572L9.538 1.924a.255.255 0 1 0 .36.361L11.252.933a1.434 1.434 0 0 1 1.02-.422c.386 0 .748.15 1.021.422.273.273.423.636.423 1.021 0 .386-.15.748-.423 1.02l-1.858 1.86a3.72 3.72 0 0 0-6.066-1.219l-4.283 4.28a3.72 3.72 0 0 0 0 5.254 3.704 3.704 0 0 0 2.628 1.087c.951 0 1.903-.362 2.627-1.087l2.274-2.274a.255.255 0 1 0-.36-.361z"/><path id="b" d="M13.14 1.087a3.72 3.72 0 0 0-5.255 0L5.607 3.364a.255.255 0 1 0 .362.36l2.277-2.276a3.208 3.208 0 0 1 4.532 0 3.208 3.208 0 0 1 0 4.532l-4.282 4.28a3.183 3.183 0 0 1-2.266.94 3.208 3.208 0 0 1-3.04-2.194L5.215 6.98a1.434 1.434 0 0 1 1.02-.422 1.434 1.434 0 0 1 1.338.9.255.255 0 0 0 .473-.192 1.938 1.938 0 0 0-.428-.647 1.943 1.943 0 0 0-1.382-.572c-.522 0-1.013.203-1.382.572L2.767 8.706a.254.254 0 0 0-.09.09L.572 10.901c-.369.37-.572.86-.572 1.382 0 .522.203 1.013.572 1.382.37.369.86.572 1.382.572.522 0 1.013-.203 1.382-.572l1.35-1.35a.255.255 0 0 0-.361-.361l-1.35 1.35a1.434 1.434 0 0 1-1.02.422c-.386 0-.749-.15-1.022-.422a1.434 1.434 0 0 1-.422-1.021c0-.386.15-.748.422-1.02l1.859-1.86c.186.454.461.87.81 1.22A3.691 3.691 0 0 0 6.23 11.71a3.69 3.69 0 0 0 2.627-1.088L13.14 6.34a3.72 3.72 0 0 0 0-5.255z"/></defs></svg>