<svg width="18" height="14" viewBox="0 0 18 14" xmlns="http://www.w3.org/2000/svg" xmlns:xlink="http://www.w3.org/1999/xlink"><title>black (10)</title><desc>Created using Figma</desc><use xlink:href="#a" transform="translate(.55 8.55)" fill="#4D546C"/><use xlink:href="#b" transform="translate(0 4.51)" fill="#4D546C"/><use xlink:href="#c" transform="translate(13.5 4.51)" fill="#4D546C"/><use xlink:href="#d" fill="#4D546C"/><defs><path id="a" d="M15.833 5.44c.405 0 .755-.132 1.053-.393L11.788.001l-.353.251c-.381.279-.69.496-.929.651a5.744 5.744 0 0 1-.948.477 2.917 2.917 0 0 1-1.105.244h-.02c-.342 0-.71-.081-1.105-.244A5.727 5.727 0 0 1 6.38.903a23.652 23.652 0 0 1-.93-.65A44.132 44.132 0 0 0 5.1 0L0 5.047c.298.261.649.393 1.053.393h14.78z"/><path id="b" d="M1.014.865A5.308 5.308 0 0 1 0 0v7.677L4.493 3.23A347.402 347.402 0 0 0 1.014.865z"/><path id="c" d="M3.487.865C2.12 1.78.957 2.57 0 3.23l4.491 4.446V0a5.525 5.525 0 0 1-1.004.865z"/><path id="d" d="M16.386 0H1.606C1.091 0 .694.172.416.517.14.86 0 1.292 0 1.809c0 .417.184.869.552 1.356.368.487.76.87 1.175 1.148.227.159.914.631 2.058 1.416a666.572 666.572 0 0 1 2.631 1.814l.15.105.277.198a11.187 11.187 0 0 0 1.064.701c.204.119.397.208.578.268.18.06.348.09.502.09h.02c.154 0 .32-.03.502-.09.18-.06.373-.149.577-.268a11.187 11.187 0 0 0 1.065-.701 68.257 68.257 0 0 1 .426-.303l1.017-.7a9417.2 9417.2 0 0 1 3.682-2.53 4.751 4.751 0 0 0 1.225-1.222c.328-.477.492-.977.492-1.5 0-.438-.16-.812-.477-1.124A1.561 1.561 0 0 0 16.386 0z"/></defs></svg>