<svg width="18" height="18" viewBox="0 0 18 18" xmlns="http://www.w3.org/2000/svg" xmlns:xlink="http://www.w3.org/1999/xlink"><title>Shape Copy</title><desc>Created using Figma</desc><use xlink:href="#a" fill="#21AA93"/><defs><path id="a" fill-rule="evenodd" d="M6.19 6.349c1.26-.095 2.172-1.592 2.038-3.344-.134-1.752-1.263-3.095-2.522-3-1.26.094-2.172 1.591-2.038 3.343.134 1.752 1.263 3.096 2.522 3zm8.802 8.287c-.04 2.494-1.38 3.396-2.802 3.313-.735-.043-1.354-.239-1.92-.418-.53-.167-1.012-.32-1.5-.32l-.04.023c-.487 0-.97.158-1.497.33-.567.185-1.188.387-1.924.43-1.422.084-2.76-.773-2.802-3.267.048-1.32.653-1.936 1.445-2.74.58-.588 1.26-1.278 1.893-2.422 1.318-2.381 2.884-2.189 2.884-2.189h.042s1.579-.182 2.884 2.19c.639 1.16 1.329 1.838 1.914 2.412.78.766 1.376 1.35 1.423 2.658zm-.95-10.754c-.47 1.712-1.848 2.83-3.08 2.497-1.23-.332-1.846-1.99-1.375-3.702.47-1.712 1.849-2.83 3.08-2.497 1.23.333 1.846 1.99 1.376 3.702zm2.622 1.127c-1.072-.29-2.273.683-2.682 2.174-.41 1.49.127 2.934 1.199 3.224 1.071.29 2.272-.683 2.682-2.174.409-1.491-.128-2.935-1.2-3.224zm-15.328 0c1.072-.29 2.272.683 2.682 2.174.41 1.49-.127 2.934-1.199 3.224-1.071.29-2.272-.684-2.682-2.174-.41-1.491.128-2.935 1.2-3.224z"/></defs></svg>