<svg width="16" height="14" viewBox="0 0 16 14" xmlns="http://www.w3.org/2000/svg" xmlns:xlink="http://www.w3.org/1999/xlink"><title>paw-print (2)</title><desc>Created using Figma</desc><use xlink:href="#a" transform="translate(3.1 .064)" fill="#4D546C"/><use xlink:href="#b" transform="translate(2.66 6.625)" fill="#4D546C"/><use xlink:href="#c" transform="translate(7.98 .064)" fill="#4D546C"/><use xlink:href="#d" transform="translate(12.24 4.648)" fill="#4D546C"/><use xlink:href="#e" transform="translate(0 4.648)" fill="#4D546C"/><defs><path id="a" fill-rule="evenodd" d="M4.595 3.083c0 1.7-1.03 3.084-2.297 3.084C1.03 6.167 0 4.784 0 3.084 0 1.383 1.03 0 2.298 0c1.266 0 2.297 1.383 2.297 3.083zm-.75 0C3.845 1.82 3.136.75 2.298.75 1.458.75.75 1.819.75 3.083c0 1.265.708 2.334 1.548 2.334.838 0 1.547-1.069 1.547-2.333z"/><path id="b" fill-rule="evenodd" d="M9.546 2.6l.004.006c.054.074.11.149.155.23.915 1.61.687 3.472-.507 4.15a1.364 1.364 0 0 1-.683.186c-.552 0-1.06-.335-1.597-.689l-.002-.001-.014-.01c-.348-.227-.707-.463-1.114-.643-.059-.02-.33-.054-.709-.054-.318 0-.512.024-.56.04-.42.174-.8.407-1.165.632l-.01.005c-.58.358-1.081.666-1.63.666a1.37 1.37 0 0 1-.752-.227C.382 6.518.041 5.864.003 5.05c-.035-.767.206-1.594.678-2.33.045-.07.098-.134.151-.197a.897.897 0 0 0 .107-.144C1.499 1.228 2.896 0 5.142 0h.088c2.281.034 3.69 1.33 4.203 2.43.024.05.067.11.113.172zM8.514 6.423a.616.616 0 0 0 .313-.087c.835-.475.936-1.878.226-3.128a1.368 1.368 0 0 0-.09-.134l-.016-.021-.002-.002a1.803 1.803 0 0 1-.192-.304C8.332 1.843 7.153.778 5.22.751L5.142.75c-1.9 0-3.069 1.01-3.529 1.955-.058.12-.135.213-.203.295l-.002.002-.012.014a.879.879 0 0 0-.084.109c-.39.606-.588 1.277-.56 1.89.027.564.245 1.007.616 1.245a.618.618 0 0 0 .347.108c.334 0 .749-.255 1.229-.55l.007-.004c.376-.232.802-.493 1.288-.695.15-.062.433-.094.84-.094.278 0 .78.015 1.012.118.47.208.878.476 1.237.713.461.304.86.566 1.186.566z"/><path id="c" fill-rule="evenodd" d="M4.595 3.083c0 1.7-1.03 3.084-2.298 3.084C1.031 6.167 0 4.784 0 3.084 0 1.383 1.03 0 2.297 0c1.267 0 2.298 1.383 2.298 3.083zm-.75 0C3.845 1.82 3.136.75 2.297.75 1.458.75.75 1.819.75 3.083c0 1.265.708 2.334 1.547 2.334.84 0 1.548-1.069 1.548-2.333z"/><path id="d" fill-rule="evenodd" d="M0 2.398C0 1.053.795 0 1.81 0c1.015 0 1.81 1.053 1.81 2.398 0 1.343-.795 2.396-1.81 2.396C.795 4.794 0 3.741 0 2.398zm.75 0c0 .892.486 1.646 1.06 1.646.575 0 1.06-.754 1.06-1.646C2.87 1.504 2.385.75 1.81.75 1.236.75.75 1.504.75 2.398z"/><path id="e" fill-rule="evenodd" d="M1.81 0c1.015 0 1.81 1.053 1.81 2.398 0 1.343-.795 2.396-1.81 2.396C.795 4.794 0 3.741 0 2.398 0 1.053.795 0 1.81 0zM.75 2.398c0 .892.486 1.646 1.06 1.646.575 0 1.06-.754 1.06-1.646C2.87 1.504 2.386.75 1.81.75 1.236.75.75 1.504.75 2.398z"/></defs></svg>