<svg width="18" height="16" viewBox="0 0 18 16" xmlns="http://www.w3.org/2000/svg" xmlns:xlink="http://www.w3.org/1999/xlink"><title>photo-icon copy 2</title><desc>Created using Figma</desc><use xlink:href="#a" transform="translate(6.12 6.05)" fill="#9CA0AE"/><use xlink:href="#b" transform="translate(0 .02)" fill="#9CA0AE"/><defs><path id="a" fill-rule="evenodd" d="M2.88 5.677c1.59 0 2.88-1.271 2.88-2.839C5.76 1.271 4.47 0 2.88 0 1.29 0 0 1.27 0 2.838s1.29 2.839 2.88 2.839z"/><path id="b" fill-rule="evenodd" d="M6.3 0L4.68 1.774H1.8c-.99 0-1.8.798-1.8 1.774V14.19c0 .976.81 1.774 1.8 1.774h14.4c.99 0 1.8-.798 1.8-1.774V3.548c0-.976-.81-1.774-1.8-1.774h-2.88L11.7 0H6.3zM9 13.304c-2.52 0-4.5-1.95-4.5-4.434S6.48 4.435 9 4.435s4.5 1.951 4.5 4.435c0 2.483-1.98 4.434-4.5 4.434z"/></defs></svg>