<svg width="14" height="18" viewBox="0 0 14 18" xmlns="http://www.w3.org/2000/svg" xmlns:xlink="http://www.w3.org/1999/xlink"><title>pinterest-logo (1)</title><desc>Created using Figma</desc><use xlink:href="#a" fill="#4D546C"/><defs><path id="a" d="M13.895 4.999C13.404 1.446 9.865-.363 6.09.06 3.106.396.13 2.81.006 6.263c-.075 2.108.522 3.689 2.527 4.134.868-1.537-.28-1.873-.46-2.987-.735-4.55 5.247-7.658 8.38-4.479 2.17 2.203.74 8.974-2.755 8.269-3.347-.672 1.64-6.062-1.032-7.12-2.171-.86-3.325 2.63-2.295 4.365-.604 2.983-1.904 5.792-1.378 9.533 1.707-1.24 2.283-3.613 2.755-6.088.858.522 1.317 1.063 2.41 1.147 4.034.314 6.29-4.03 5.737-8.038z"/></defs></svg>