<svg width="18" height="18" viewBox="0 0 18 18" xmlns="http://www.w3.org/2000/svg" xmlns:xlink="http://www.w3.org/1999/xlink"><title>search (7)</title><desc>Created using Figma</desc><use xlink:href="#a" transform="translate(.32)" fill="#4D546C" opacity=".5"/><defs><path id="a" fill-rule="evenodd" d="M13.051 11.932l4.358 4.453a.937.937 0 0 1-.026 1.34.968.968 0 0 1-.669.264.965.965 0 0 1-.695-.29l-4.39-4.487a7.404 7.404 0 0 1-4.236 1.314C3.317 14.526 0 11.268 0 7.263S3.317 0 7.393 0s7.393 3.258 7.393 7.263c0 1.714-.614 3.36-1.735 4.67zm-.194-4.669c0-2.96-2.451-5.368-5.464-5.368-3.013 0-5.464 2.408-5.464 5.368 0 2.96 2.45 5.369 5.464 5.369 3.013 0 5.464-2.409 5.464-5.369z"/></defs></svg>