<svg width="18" height="18" viewBox="0 0 18 18" xmlns="http://www.w3.org/2000/svg" xmlns:xlink="http://www.w3.org/1999/xlink"><title>share (2) copy</title><desc>Created using Figma</desc><use xlink:href="#a" fill="#4D546C"/><defs><path id="a" d="M14.688 11.438a3.298 3.298 0 0 0-2.584 1.257L6.487 9.847c.074-.272.127-.553.127-.849 0-.322-.063-.625-.15-.92l5.591-2.835a3.295 3.295 0 0 0 2.633 1.314c1.83 0 3.309-1.467 3.309-3.279 0-1.81-1.48-3.278-3.309-3.278-1.825 0-3.306 1.468-3.306 3.278 0 .297.053.579.127.851L5.894 6.977a3.302 3.302 0 0 0-2.588-1.259C1.48 5.718 0 7.188 0 8.998c0 1.811 1.479 3.28 3.306 3.28a3.304 3.304 0 0 0 2.636-1.317l5.59 2.835c-.088.294-.151.6-.151.922 0 1.811 1.48 3.28 3.306 3.28 1.829 0 3.308-1.469 3.308-3.28.001-1.812-1.479-3.28-3.308-3.28z"/></defs></svg>