<svg width="11" height="18" viewBox="0 0 11 18" xmlns="http://www.w3.org/2000/svg" xmlns:xlink="http://www.w3.org/1999/xlink"><title>tumblr-letter-logo</title><desc>Created using Figma</desc><use xlink:href="#a" transform="translate(.03)" fill="#4D546C"/><defs><path id="a" d="M6.983 14.682c-.29-.178-.557-.483-.663-.777-.107-.296-.094-.896-.094-1.938V7.36h4.027V4.155H6.226V0H3.75c-.11.925-.314 1.69-.61 2.29a4.906 4.906 0 0 1-1.175 1.54c-.488.43-1.281.76-1.965.986v2.545h2.365v6.299c0 .822.084 1.45.251 1.882.167.431.467.84.899 1.225.432.38.953.678 1.566.887a5.19 5.19 0 0 0 1.877.31c.7 0 1.352-.074 1.957-.218.604-.147 1.278-.401 2.021-.76V14.15c-.872.592-1.749.886-2.63.886-.497 0-.936-.118-1.323-.355z"/></defs></svg>