<svg width="16" height="14" viewBox="0 0 16 14" xmlns="http://www.w3.org/2000/svg" xmlns:xlink="http://www.w3.org/1999/xlink"><title>Shape Copy 3</title><desc>Created using Figma</desc><use xlink:href="#a" fill="#7B8DA0"/><defs><path id="a" d="M15.745 1.629a6.12 6.12 0 0 1-1.103.391c.418-.417.731-.939.908-1.521.05-.166-.12-.31-.264-.221a6.197 6.197 0 0 1-1.686.733.435.435 0 0 1-.4-.105A3.353 3.353 0 0 0 9.823.177C8.706.542 7.842 1.513 7.572 2.71c-.102.45-.13.899-.082 1.336a.134.134 0 0 1-.031.102.125.125 0 0 1-.108.045c-2.448-.24-4.656-1.48-6.216-3.494a.176.176 0 0 0-.296.025 3.771 3.771 0 0 0-.467 1.824c0 .983.376 1.91 1.028 2.586a3.001 3.001 0 0 1-.786-.32c-.12-.07-.267.02-.268.163C.329 6.44 1.142 7.74 2.36 8.325a2.962 2.962 0 0 1-.655-.058c-.134-.027-.247.107-.205.244.395 1.3 1.458 2.257 2.73 2.474a6.144 6.144 0 0 1-3.564 1.139h-.4a.267.267 0 0 0-.258.209.293.293 0 0 0 .131.318A9.112 9.112 0 0 0 4.897 14c1.462 0 2.83-.305 4.065-.907a9.032 9.032 0 0 0 2.975-2.345 10.402 10.402 0 0 0 1.821-3.209c.405-1.138.62-2.353.62-3.512v-.055a.63.63 0 0 1 .219-.481c.53-.453.992-.985 1.372-1.584.1-.157-.058-.355-.223-.278z"/></defs></svg>