<svg width="18" height="15" viewBox="0 0 18 15" xmlns="http://www.w3.org/2000/svg" xmlns:xlink="http://www.w3.org/1999/xlink"><title>Shape</title><desc>Created using Figma</desc><use xlink:href="#a" fill="#4D546C"/><defs><path id="a" d="M17.714 1.745c-.4.178-.815.318-1.241.42a3.878 3.878 0 0 0 1.021-1.63.203.203 0 0 0-.297-.237 7.155 7.155 0 0 1-1.897.785.502.502 0 0 1-.45-.112A3.877 3.877 0 0 0 12.28 0c-.41 0-.823.064-1.229.19a3.764 3.764 0 0 0-2.534 2.714 4.155 4.155 0 0 0-.092 1.431.144.144 0 0 1-.156.157A10.17 10.17 0 0 1 1.277.75a.203.203 0 0 0-.333.026A3.89 3.89 0 0 0 .419 2.73c0 1.054.422 2.047 1.156 2.771a3.474 3.474 0 0 1-.885-.343.203.203 0 0 0-.301.175 3.893 3.893 0 0 0 2.266 3.586 3.465 3.465 0 0 1-.736-.061.203.203 0 0 0-.232.261 3.892 3.892 0 0 0 3.072 2.65 7.152 7.152 0 0 1-4.01 1.22h-.45a.297.297 0 0 0-.29.225.308.308 0 0 0 .148.34A10.637 10.637 0 0 0 5.509 15c1.645 0 3.184-.327 4.573-.972a10.102 10.102 0 0 0 3.347-2.512 11.018 11.018 0 0 0 2.049-3.438c.456-1.22.697-2.521.697-3.763v-.06c0-.2.09-.387.247-.515a7.68 7.68 0 0 0 1.543-1.696c.113-.17-.066-.382-.251-.299z"/></defs></svg>