<svg width="24" height="21" viewBox="0 0 24 21" xmlns="http://www.w3.org/2000/svg" xmlns:xlink="http://www.w3.org/1999/xlink"><title>Shape</title><desc>Created using Figma</desc><use xlink:href="#a" transform="translate(0 .03)" fill="#FFF"/><defs><path id="a" d="M23.618 2.327a9.49 9.49 0 0 1-1.654.559A5.17 5.17 0 0 0 23.325.713a.27.27 0 0 0-.395-.316 9.52 9.52 0 0 1-2.53 1.047.67.67 0 0 1-.601-.15A5.169 5.169 0 0 0 16.375 0c-.546 0-1.098.085-1.639.254a5.018 5.018 0 0 0-3.378 3.618 5.54 5.54 0 0 0-.123 1.909.192.192 0 0 1-.208.21C7.355 5.647 4.043 3.875 1.702.998a.27.27 0 0 0-.443.035A5.187 5.187 0 0 0 .558 3.64c0 1.405.564 2.73 1.542 3.695a4.632 4.632 0 0 1-1.18-.458.27.27 0 0 0-.402.234 5.19 5.19 0 0 0 3.022 4.781l-.11.002c-.29 0-.583-.028-.872-.084a.27.27 0 0 0-.308.35 5.189 5.189 0 0 0 4.096 3.533A9.536 9.536 0 0 1 .998 17.32H.4c-.185 0-.34.12-.387.299a.411.411 0 0 0 .196.453A14.182 14.182 0 0 0 7.345 20c2.193 0 4.245-.436 6.098-1.296a13.468 13.468 0 0 0 4.462-3.35 14.69 14.69 0 0 0 2.732-4.584c.608-1.626.93-3.36.93-5.017v-.08a.882.882 0 0 1 .329-.686 10.239 10.239 0 0 0 2.057-2.262c.15-.226-.087-.508-.335-.398z"/></defs></svg>